<mxfile host="app.diagrams.net" agent="Mozilla/5.0 (Windows NT 10.0; Win64; x64) AppleWebKit/537.36 (KHTML, like Gecko) Chrome/134.0.0.0 Safari/537.36" version="26.1.0">
  <diagram name="Page-1" id="1MAWvuD8AatOWtZLL9b6">
    <mxGraphModel dx="1050" dy="1709" grid="1" gridSize="10" guides="1" tooltips="1" connect="1" arrows="1" fold="1" page="1" pageScale="1" pageWidth="850" pageHeight="1100" math="0" shadow="0">
      <root>
        <mxCell id="0" />
        <mxCell id="1" parent="0" />
        <mxCell id="ReiZYf6S0yGkLNwOAEz6-1" value="Windows 10 client" style="fontColor=#0066CC;verticalAlign=top;verticalLabelPosition=bottom;labelPosition=center;align=center;html=1;outlineConnect=0;fillColor=#CCCCCC;strokeColor=#6881B3;gradientColor=none;gradientDirection=north;strokeWidth=2;shape=mxgraph.networks.virtual_pc;" vertex="1" parent="1">
          <mxGeometry x="364.5" y="465" width="115" height="85" as="geometry" />
        </mxCell>
        <mxCell id="ReiZYf6S0yGkLNwOAEz6-2" value="Router&lt;div&gt;&lt;br&gt;&lt;/div&gt;" style="points=[];aspect=fixed;html=1;align=center;shadow=0;dashed=0;fillColor=#FF6A00;strokeColor=none;shape=mxgraph.alibaba_cloud.router;" vertex="1" parent="1">
          <mxGeometry x="410" y="305.4" width="55.2" height="57.599999999999994" as="geometry" />
        </mxCell>
        <mxCell id="ReiZYf6S0yGkLNwOAEz6-18" style="edgeStyle=orthogonalEdgeStyle;rounded=0;orthogonalLoop=1;jettySize=auto;html=1;entryX=1;entryY=0.5;entryDx=0;entryDy=0;shape=link;" edge="1" parent="1" source="ReiZYf6S0yGkLNwOAEz6-3" target="ReiZYf6S0yGkLNwOAEz6-5">
          <mxGeometry relative="1" as="geometry" />
        </mxCell>
        <mxCell id="ReiZYf6S0yGkLNwOAEz6-39" style="rounded=0;orthogonalLoop=1;jettySize=auto;html=1;entryX=0.25;entryY=1;entryDx=0;entryDy=0;shape=link;fillColor=#f8cecc;strokeColor=#b85450;" edge="1" parent="1" source="ReiZYf6S0yGkLNwOAEz6-3" target="ReiZYf6S0yGkLNwOAEz6-4">
          <mxGeometry relative="1" as="geometry">
            <Array as="points">
              <mxPoint x="480" y="90" />
            </Array>
          </mxGeometry>
        </mxCell>
        <mxCell id="ReiZYf6S0yGkLNwOAEz6-3" value="Internet&lt;div&gt;&lt;br&gt;&lt;/div&gt;" style="image;aspect=fixed;perimeter=ellipsePerimeter;html=1;align=center;shadow=0;dashed=0;spacingTop=3;image=img/lib/active_directory/internet_cloud.svg;" vertex="1" parent="1">
          <mxGeometry x="440" y="170" width="60" height="37.8" as="geometry" />
        </mxCell>
        <mxCell id="ReiZYf6S0yGkLNwOAEz6-29" style="rounded=0;orthogonalLoop=1;jettySize=auto;html=1;shape=link;" edge="1" parent="1" source="ReiZYf6S0yGkLNwOAEz6-4" target="ReiZYf6S0yGkLNwOAEz6-9">
          <mxGeometry relative="1" as="geometry" />
        </mxCell>
        <mxCell id="ReiZYf6S0yGkLNwOAEz6-30" style="rounded=0;orthogonalLoop=1;jettySize=auto;html=1;shape=link;" edge="1" parent="1" source="ReiZYf6S0yGkLNwOAEz6-4" target="ReiZYf6S0yGkLNwOAEz6-3">
          <mxGeometry relative="1" as="geometry">
            <Array as="points">
              <mxPoint x="420" y="100" />
            </Array>
          </mxGeometry>
        </mxCell>
        <mxCell id="ReiZYf6S0yGkLNwOAEz6-33" style="rounded=0;orthogonalLoop=1;jettySize=auto;html=1;entryX=1;entryY=0;entryDx=0;entryDy=0;shape=link;fillColor=#ffe6cc;strokeColor=#d79b00;" edge="1" parent="1" source="ReiZYf6S0yGkLNwOAEz6-4" target="ReiZYf6S0yGkLNwOAEz6-3">
          <mxGeometry relative="1" as="geometry">
            <Array as="points">
              <mxPoint x="570" y="160" />
            </Array>
          </mxGeometry>
        </mxCell>
        <mxCell id="ReiZYf6S0yGkLNwOAEz6-40" style="edgeStyle=orthogonalEdgeStyle;rounded=0;orthogonalLoop=1;jettySize=auto;html=1;entryX=0.25;entryY=0;entryDx=0;entryDy=0;fillColor=#f8cecc;strokeColor=#b85450;shape=link;" edge="1" parent="1" source="ReiZYf6S0yGkLNwOAEz6-4" target="ReiZYf6S0yGkLNwOAEz6-5">
          <mxGeometry relative="1" as="geometry" />
        </mxCell>
        <mxCell id="ReiZYf6S0yGkLNwOAEz6-4" value="&lt;div&gt;Shuffle&lt;/div&gt;&lt;div&gt;&lt;br&gt;&lt;/div&gt;" style="image;aspect=fixed;perimeter=ellipsePerimeter;html=1;align=center;shadow=0;dashed=0;spacingTop=3;image=img/lib/active_directory/internet_cloud.svg;" vertex="1" parent="1">
          <mxGeometry x="425" y="-20" width="50" height="31.5" as="geometry" />
        </mxCell>
        <mxCell id="ReiZYf6S0yGkLNwOAEz6-23" style="rounded=0;orthogonalLoop=1;jettySize=auto;html=1;shape=link;" edge="1" parent="1" source="ReiZYf6S0yGkLNwOAEz6-5" target="ReiZYf6S0yGkLNwOAEz6-4">
          <mxGeometry relative="1" as="geometry" />
        </mxCell>
        <mxCell id="ReiZYf6S0yGkLNwOAEz6-42" style="rounded=0;orthogonalLoop=1;jettySize=auto;html=1;shape=link;fillColor=#f8cecc;strokeColor=#b85450;" edge="1" parent="1" source="ReiZYf6S0yGkLNwOAEz6-5" target="ReiZYf6S0yGkLNwOAEz6-1">
          <mxGeometry relative="1" as="geometry" />
        </mxCell>
        <mxCell id="ReiZYf6S0yGkLNwOAEz6-5" value="&lt;div&gt;Wazuh manager&lt;/div&gt;&lt;div&gt;&lt;br&gt;&lt;/div&gt;" style="image;aspect=fixed;perimeter=ellipsePerimeter;html=1;align=center;shadow=0;dashed=0;spacingTop=3;image=img/lib/active_directory/internet_cloud.svg;" vertex="1" parent="1">
          <mxGeometry x="220" y="143" width="50" height="31.5" as="geometry" />
        </mxCell>
        <mxCell id="ReiZYf6S0yGkLNwOAEz6-9" value="&lt;div&gt;The hive&lt;/div&gt;" style="image;aspect=fixed;perimeter=ellipsePerimeter;html=1;align=center;shadow=0;dashed=0;spacingTop=3;image=img/lib/active_directory/internet_cloud.svg;" vertex="1" parent="1">
          <mxGeometry x="620" y="111.5" width="50" height="31.5" as="geometry" />
        </mxCell>
        <mxCell id="ReiZYf6S0yGkLNwOAEz6-35" style="rounded=0;orthogonalLoop=1;jettySize=auto;html=1;entryX=1;entryY=0.75;entryDx=0;entryDy=0;shape=link;fillColor=#ffe6cc;strokeColor=#d79b00;" edge="1" parent="1" source="ReiZYf6S0yGkLNwOAEz6-14" target="ReiZYf6S0yGkLNwOAEz6-3">
          <mxGeometry relative="1" as="geometry" />
        </mxCell>
        <mxCell id="ReiZYf6S0yGkLNwOAEz6-37" style="edgeStyle=orthogonalEdgeStyle;rounded=0;orthogonalLoop=1;jettySize=auto;html=1;entryX=0.75;entryY=1;entryDx=0;entryDy=0;shape=link;fillColor=#f8cecc;strokeColor=#b85450;" edge="1" parent="1" source="ReiZYf6S0yGkLNwOAEz6-14" target="ReiZYf6S0yGkLNwOAEz6-3">
          <mxGeometry relative="1" as="geometry" />
        </mxCell>
        <mxCell id="ReiZYf6S0yGkLNwOAEz6-14" value="SOC Analyst" style="fontColor=#0066CC;verticalAlign=top;verticalLabelPosition=bottom;labelPosition=center;align=center;html=1;outlineConnect=0;fillColor=#CCCCCC;strokeColor=#6881B3;gradientColor=none;gradientDirection=north;strokeWidth=2;shape=mxgraph.networks.virtual_pc;" vertex="1" parent="1">
          <mxGeometry x="670" y="300" width="115" height="85" as="geometry" />
        </mxCell>
        <mxCell id="ReiZYf6S0yGkLNwOAEz6-15" style="rounded=0;orthogonalLoop=1;jettySize=auto;html=1;exitX=0.5;exitY=0;exitDx=0;exitDy=0;exitPerimeter=0;entryX=0.569;entryY=0.92;entryDx=0;entryDy=0;entryPerimeter=0;startArrow=block;startFill=1;shape=link;" edge="1" parent="1" source="ReiZYf6S0yGkLNwOAEz6-1" target="ReiZYf6S0yGkLNwOAEz6-2">
          <mxGeometry relative="1" as="geometry" />
        </mxCell>
        <mxCell id="ReiZYf6S0yGkLNwOAEz6-16" value="1. Send Events&lt;div&gt;&lt;br&gt;&lt;/div&gt;" style="text;html=1;align=center;verticalAlign=middle;resizable=0;points=[];autosize=1;strokeColor=none;fillColor=none;" vertex="1" parent="1">
          <mxGeometry x="345" y="390" width="100" height="40" as="geometry" />
        </mxCell>
        <mxCell id="ReiZYf6S0yGkLNwOAEz6-17" style="edgeStyle=orthogonalEdgeStyle;rounded=0;orthogonalLoop=1;jettySize=auto;html=1;entryX=0.551;entryY=0.083;entryDx=0;entryDy=0;entryPerimeter=0;fillColor=#f5f5f5;strokeColor=#666666;shape=link;" edge="1" parent="1" source="ReiZYf6S0yGkLNwOAEz6-3" target="ReiZYf6S0yGkLNwOAEz6-2">
          <mxGeometry relative="1" as="geometry" />
        </mxCell>
        <mxCell id="ReiZYf6S0yGkLNwOAEz6-27" value="2. Recieve events&lt;div&gt;&lt;br&gt;&lt;/div&gt;" style="text;html=1;align=center;verticalAlign=middle;resizable=0;points=[];autosize=1;strokeColor=none;fillColor=none;" vertex="1" parent="1">
          <mxGeometry x="295" y="134.5" width="120" height="40" as="geometry" />
        </mxCell>
        <mxCell id="ReiZYf6S0yGkLNwOAEz6-28" value="3. Send Alerts" style="text;html=1;align=center;verticalAlign=middle;resizable=0;points=[];autosize=1;strokeColor=none;fillColor=none;" vertex="1" parent="1">
          <mxGeometry x="240" y="58" width="100" height="30" as="geometry" />
        </mxCell>
        <mxCell id="ReiZYf6S0yGkLNwOAEz6-31" value="4. Enrich IOCS&lt;div&gt;&lt;br&gt;&lt;/div&gt;" style="text;html=1;align=center;verticalAlign=middle;resizable=0;points=[];autosize=1;strokeColor=none;fillColor=none;" vertex="1" parent="1">
          <mxGeometry x="364.5" y="88" width="100" height="40" as="geometry" />
        </mxCell>
        <mxCell id="ReiZYf6S0yGkLNwOAEz6-32" value="5. Send Alerts" style="text;html=1;align=center;verticalAlign=middle;resizable=0;points=[];autosize=1;strokeColor=none;fillColor=none;" vertex="1" parent="1">
          <mxGeometry x="530" y="38" width="100" height="30" as="geometry" />
        </mxCell>
        <mxCell id="ReiZYf6S0yGkLNwOAEz6-34" value="6. Send Email" style="text;html=1;align=center;verticalAlign=middle;resizable=0;points=[];autosize=1;strokeColor=none;fillColor=none;" vertex="1" parent="1">
          <mxGeometry x="500" y="170" width="100" height="30" as="geometry" />
        </mxCell>
        <mxCell id="ReiZYf6S0yGkLNwOAEz6-36" value="7. Recieve email" style="text;html=1;align=center;verticalAlign=middle;resizable=0;points=[];autosize=1;strokeColor=none;fillColor=none;" vertex="1" parent="1">
          <mxGeometry x="505" y="258" width="110" height="30" as="geometry" />
        </mxCell>
        <mxCell id="ReiZYf6S0yGkLNwOAEz6-38" value="8. Send respoonse action" style="text;html=1;align=center;verticalAlign=middle;resizable=0;points=[];autosize=1;strokeColor=none;fillColor=none;" vertex="1" parent="1">
          <mxGeometry x="470" y="319.2" width="160" height="30" as="geometry" />
        </mxCell>
        <mxCell id="ReiZYf6S0yGkLNwOAEz6-41" value="8. Send response action" style="text;html=1;align=center;verticalAlign=middle;resizable=0;points=[];autosize=1;strokeColor=none;fillColor=none;" vertex="1" parent="1">
          <mxGeometry x="185" y="18" width="150" height="30" as="geometry" />
        </mxCell>
        <mxCell id="ReiZYf6S0yGkLNwOAEz6-43" value="9. Perform response action" style="text;html=1;align=center;verticalAlign=middle;resizable=0;points=[];autosize=1;strokeColor=none;fillColor=none;" vertex="1" parent="1">
          <mxGeometry x="175" y="258" width="170" height="30" as="geometry" />
        </mxCell>
      </root>
    </mxGraphModel>
  </diagram>
</mxfile>
